<svg id="Layer_1" data-name="Layer 1" xmlns="http://www.w3.org/2000/svg" viewBox="0 0 27.47 40"><defs><style>.cls-1{fill:#0e3a52;}.cls-2{fill:#fff;}.cls-3{fill:#27bbb1;}</style></defs><title>logo</title><path class="cls-1" d="M16.79,13.57v-8L18.44,2l1.81,3.53v8.08h1.24V3A1.79,1.79,0,0,1,23.31,2a1.91,1.91,0,0,1,1.82.93V13.57h1v-8l2-3.63,1.68,3.59v8c0,.17,1.6,0,1.76.09s.12,20,.12,20a.3.3,0,0,1-.17.34,1.35,1.35,0,0,1-.55.16H15.34a.49.49,0,0,1-.17-.23,1.18,1.18,0,0,1-.07-.44V29.9L15,15.83v-2h1.76Z" transform="translate(-4.27 -1.96)"/><polygon class="cls-2" points="13.65 3.27 14.87 3.27 14.31 1.84 13.65 3.27"/><polygon class="cls-3" points="13.35 4.16 15.25 4.16 15.27 11.7 13.35 11.7 13.35 4.16"/><polygon class="cls-3" points="18.1 5.08 19.99 5.08 20.01 11.64 18.1 11.64 18.1 5.08"/><rect class="cls-3" x="18.21" y="3.1" width="1.8" height="1.27"/><rect class="cls-2" x="18.21" y="0.97" width="1.8" height="1.27" rx="0.23"/><polygon class="cls-2" points="23.22 3.27 24.43 3.27 23.88 1.84 23.22 3.27"/><polygon class="cls-3" points="22.87 4.37 24.77 4.37 24.78 11.91 22.87 11.91 22.87 4.37"/><rect class="cls-1" x="10.78" y="11.79" width="16.61" height="0.16"/><text x="-4.27" y="-1.96"/><path class="cls-1" d="M7,32a4.43,4.43,0,0,1-2-2.57A16.23,16.23,0,0,1,4.27,24,15.25,15.25,0,0,1,5,18.75,4.66,4.66,0,0,1,7,16.15a7,7,0,0,1,3.42-.73,17,17,0,0,1,2.93.24,16.39,16.39,0,0,1,2.36.57v2.63a15.48,15.48,0,0,0-1.95-.27c-.84-.08-1.72-.12-2.63-.12a4.18,4.18,0,0,0-2.11.43A2.5,2.5,0,0,0,8,20.5,14.15,14.15,0,0,0,7.66,24,15.21,15.21,0,0,0,8,27.55a2.57,2.57,0,0,0,1,1.63,4.11,4.11,0,0,0,2.18.46,37.81,37.81,0,0,0,4.58-.23V32a17.42,17.42,0,0,1-5.34.67A7.51,7.51,0,0,1,7,32Z" transform="translate(-4.27 -1.96)"/><path class="cls-2" d="M22.58,31.14v2.39h-7V31.14l1.7-.68V17.4l-1.7-.83V14.29l7-.14v2.42l-1.75.83v4.73h1.55l3.79-7.84,4.14-.14v2.42l-2,.77-3,6,4.24,7.12,1.68.68v2.39h-7V31.14l1.32-.66-3.07-5.33H20.83v5.31Z" transform="translate(-4.27 -1.96)"/></svg>