<?xml version="1.0" encoding="utf-8"?>
<!-- Generator: Adobe Illustrator 23.0.2, SVG Export Plug-In . SVG Version: 6.00 Build 0)  -->
<svg version="1.1" id="Layer_1" xmlns="http://www.w3.org/2000/svg" xmlns:xlink="http://www.w3.org/1999/xlink" x="0px" y="0px"
	 viewBox="0 0 400 400" style="enable-background:new 0 0 400 400;" xml:space="preserve">
<style type="text/css">
	.st0{fill:#0E3A52;}
	.st1{fill:#FFFFFF;}
	.st2{font-family:'Bitter-Bold';}
	.st3{font-size:100.6551px;}
	.st4{letter-spacing:3;}
	.st5{fill:#27BBB1;}
	.st6{fill:none;stroke:#231F20;}
</style>
<g>
	<g>
		<g>
			<path class="st0" d="M65.47,104.4c-2.33-0.79-5.1-1.19-8.32-1.19c-8.18,0-12.26,6.07-12.26,18.21c0,11.4,4.21,17.1,12.63,17.1
				c2.18,0,4.45-0.43,6.8-1.3c2.35-0.87,4.17-1.75,5.46-2.64l1.86-1.26l4.09,6.69c-0.2,0.2-0.5,0.48-0.89,0.85
				c-0.4,0.37-1.25,1.03-2.57,1.97c-1.31,0.94-2.69,1.76-4.13,2.45c-1.44,0.7-3.23,1.34-5.39,1.93c-2.15,0.59-4.32,0.89-6.5,0.89
				c-7.58,0-13.44-2.24-17.58-6.73c-4.14-4.48-6.21-11.01-6.21-19.59c0-8.67,2.25-15.49,6.76-20.44c4.51-4.96,10.6-7.43,18.29-7.43
				c2.68,0,5.45,0.28,8.32,0.85c2.87,0.57,5.08,1.15,6.62,1.75l2.38,0.89l-0.37,14.12h-7.28L65.47,104.4z"/>
			<path class="st0" d="M103.38,140.75v6.47H80.56v-6.47l5.58-1.86v-35.31l-5.58-2.23v-6.17l22.82-0.37v6.54l-5.72,2.23v12.26h19.48
				v-12.26l-5.72-2.23v-6.17l22.82-0.37v6.54l-5.58,2.23v35.31l5.58,1.86v6.47h-22.82v-6.47l5.72-1.86v-14.35H97.65v14.35
				L103.38,140.75z"/>
			<path class="st0" d="M171.39,94.81l15.98,44.23l5.2,1.71v6.47h-23.64v-6.47l5.58-1.71l-1.78-5.58h-16.5l-1.86,5.5l5.8,1.78v6.47
				h-22.45v-6.47l5.43-1.71l16.35-44L171.39,94.81z M164.7,107.9l-5.87,17.62h11.45L164.7,107.9z"/>
			<path class="st0" d="M218.88,140.75v6.47h-22.45v-6.47l5.57-1.86v-35.31l-5.57-2.23v-6.17l17.1-0.37h5.65
				c6.19,0,10.96,1.28,14.31,3.83c3.34,2.55,5.02,6.33,5.02,11.34c0,6.59-2.8,11.27-8.4,14.05c1.24,1.44,2.28,3.05,3.12,4.83
				l4.98,10.18l5.05,1.71v6.47h-13.75l-6.24-13.75c-1.34-2.97-2.39-4.86-3.16-5.65c-0.77-0.79-2.09-1.19-3.98-1.19h-2.6v12.26
				L218.88,140.75z M213.53,103.59v15.24h4.24c2.92,0,5.2-0.68,6.84-2.04c1.64-1.36,2.45-3.28,2.45-5.76c0-2.23-0.67-4.03-2.01-5.39
				c-1.34-1.36-3.15-2.04-5.43-2.04H213.53z"/>
			<path class="st0" d="M263.48,103.59v34.94h11.37l1.64-8.4h7.06v17.1h-37.16v-6.47l5.58-1.86v-35.31l-5.58-2.23v-6.17l22.67-0.37
				v6.54L263.48,103.59z"/>
			<path class="st0" d="M305.33,103.59V116h15.01v8.18h-15.01v14.35h13.16l1.71-6.17h6.84v14.87h-38.8v-6.47l5.58-1.86v-35.31
				l-5.58-2.23v-6.17l17.1-0.37h20.81v14.35h-6.91l-1.86-5.58H305.33z"/>
			<path class="st0" d="M342.79,131.09l1.11,6.24c1.98,1.04,4.41,1.56,7.28,1.56c2.53,0,4.66-0.53,6.39-1.6
				c1.73-1.06,2.6-2.54,2.6-4.42c0-1.34-0.62-2.5-1.86-3.49c-1.24-0.99-2.79-1.76-4.65-2.3c-1.86-0.54-3.88-1.28-6.06-2.19
				c-2.18-0.92-4.2-1.91-6.06-2.97c-1.86-1.06-3.41-2.65-4.65-4.76c-1.24-2.11-1.86-4.6-1.86-7.47c0-5,1.75-8.88,5.24-11.63
				c3.49-2.75,8.04-4.12,13.64-4.12c2.48,0,5.08,0.25,7.81,0.74c2.72,0.5,4.83,0.99,6.32,1.49l2.23,0.74l-0.37,13.53h-6.84
				l-1.86-6.32c-2.23-0.74-4.41-1.12-6.54-1.12c-2.53,0-4.47,0.5-5.83,1.49c-1.36,0.99-2.04,2.26-2.04,3.79
				c0,1.34,0.62,2.5,1.86,3.49c1.24,0.99,2.79,1.77,4.65,2.34c1.86,0.57,3.86,1.3,6.02,2.19c2.16,0.89,4.16,1.86,6.02,2.9
				c1.86,1.04,3.41,2.58,4.65,4.61c1.24,2.03,1.86,4.41,1.86,7.14c0,5.4-1.87,9.63-5.61,12.67c-3.74,3.05-8.56,4.57-14.46,4.57
				c-2.48,0-5.1-0.24-7.88-0.71c-2.77-0.47-4.93-0.95-6.47-1.45l-2.23-0.67v-14.27H342.79z"/>
		</g>
		<g>
			<path class="st0" d="M55.29,201.29v6.47H32.47v-6.47l5.57-1.86v-35.31l-5.57-2.23v-6.17l22.82-0.37v6.54l-5.72,2.23v12.78h5.05
				l12.41-21.18l13.53-0.37v6.54l-6.61,2.08l-9.81,16.2l13.9,19.25l5.5,1.86v6.47H60.71v-6.47l4.31-1.78l-10.04-14.42h-5.42v14.35
				L55.29,201.29z"/>
			<path class="st0" d="M121.07,155.35l15.98,44.23l5.2,1.71v6.47h-23.64v-6.47l5.58-1.71l-1.78-5.58h-16.5l-1.86,5.5l5.8,1.78v6.47
				H87.4v-6.47l5.43-1.71l16.35-44L121.07,155.35z M114.38,168.44l-5.87,17.62h11.45L114.38,168.44z"/>
			<path class="st0" d="M170.94,201.29v6.47H148.5v-6.47l5.57-1.86v-35.31l-5.57-2.23v-6.17l17.1-0.37h5.65
				c6.19,0,10.96,1.28,14.31,3.83c3.34,2.55,5.02,6.33,5.02,11.34c0,6.59-2.8,11.27-8.4,14.05c1.24,1.44,2.28,3.05,3.12,4.83
				l4.98,10.18l5.05,1.71v6.47h-13.75l-6.24-13.75c-1.34-2.97-2.39-4.85-3.16-5.65c-0.77-0.79-2.09-1.19-3.98-1.19h-2.6v12.26
				L170.94,201.29z M165.59,164.13v15.24h4.24c2.92,0,5.2-0.68,6.84-2.04c1.64-1.36,2.45-3.28,2.45-5.76c0-2.23-0.67-4.03-2.01-5.39
				c-1.34-1.36-3.15-2.05-5.43-2.05H165.59z"/>
			<path class="st0" d="M223.72,201.29v6.47h-22.67v-6.47l5.58-1.86v-35.31l-5.58-2.23v-6.17l22.67-0.37v6.54l-5.58,2.23v35.31
				L223.72,201.29z"/>
			<path class="st0" d="M248.17,164.13v23.56c0,4.31,0.72,7.37,2.15,9.18c1.44,1.81,3.94,2.71,7.51,2.71c3.76,0,6.29-1,7.58-3.01
				c1.29-2.01,1.93-5.34,1.93-10v-22.45l-5.8-2.23v-6.17l22.89-0.37v6.54l-5.57,2.23v22.45c0,7.43-1.64,12.97-4.91,16.61
				c-3.27,3.64-8.77,5.46-16.5,5.46c-7.33,0-12.63-1.68-15.91-5.06c-3.27-3.37-4.9-8.67-4.9-15.91v-23.56l-5.58-2.23v-6.17
				l22.89-0.37v6.54L248.17,164.13z"/>
			<path class="st0" d="M314.99,201.29v6.47h-22.82v-6.47l5.57-1.86v-35.31l-5.57-2.23v-6.17l22.82-0.37v6.54l-5.72,2.23v12.78h5.05
				l12.41-21.18l13.53-0.37v6.54l-6.61,2.08l-9.81,16.2l13.9,19.25l5.5,1.86v6.47h-22.82v-6.47l4.31-1.78l-10.04-14.42h-5.42v14.35
				L314.99,201.29z"/>
			<path class="st0" d="M371.48,201.29v6.47h-22.67v-6.47l5.58-1.86v-35.31l-5.58-2.23v-6.17l22.67-0.37v6.54l-5.58,2.23v35.31
				L371.48,201.29z"/>
		</g>
	</g>
	<text transform="matrix(1 0 0 1 27.0249 292.6406)" class="st1 st2 st3 st4">MEDIA</text>
	<g>
		<path class="st5" d="M69.69,285.34v8.76H41v-8.76l7.55-2.52v-47.81L41,231.99v-8.35l25.97-0.5l15.1,33.52l15.8-33.01l24.16-0.5
			v8.86l-7.25,3.02v47.81l7.55,2.52v8.76h-30v-8.76l7.85-2.52v-38.15c-1.21,3.16-2.6,6.43-4.18,9.81
			c-1.58,3.39-3.36,7.08-5.34,11.07c-1.98,3.99-3.51,7.13-4.58,9.41l-10.87,0.5l-11.58-23.85l-1.71-5.23v36.44L69.69,285.34z"/>
		<path class="st5" d="M157.56,235.01v16.81h20.33v11.07h-20.33v19.43h17.81l2.32-8.35h9.26v20.13h-52.54v-8.76l7.55-2.52v-47.81
			l-7.55-3.02v-8.35l23.15-0.5h28.18v19.43h-9.36l-2.52-7.55H157.56z"/>
		<path class="st5" d="M200.54,294.1v-8.76l7.55-2.52v-47.81l-7.55-3.02v-8.35l23.15-0.5h9.56c10.2,0,18.08,2.95,23.65,8.86
			c5.57,5.91,8.36,14.46,8.36,25.67c0,11.27-3.02,20.16-9.06,26.67c-6.04,6.51-14.19,9.76-24.46,9.76H200.54z M223.69,235.01v47.31
			h8.36c5.23,0,9.26-1.86,12.08-5.59c2.82-3.73,4.23-9.92,4.23-18.57c0-8.19-1.33-14.09-3.97-17.72c-2.65-3.62-6.53-5.43-11.63-5.43
			H223.69z"/>
		<path class="st5" d="M306.32,285.34v8.76h-30.7v-8.76l7.55-2.52v-47.81l-7.55-3.02v-8.35l30.7-0.5v8.86l-7.55,3.02v47.81
			L306.32,285.34z"/>
		<path class="st5" d="M359.97,223.14l21.64,59.89l7.05,2.31v8.76h-32.01v-8.76l7.55-2.31l-2.42-7.55h-22.35l-2.52,7.45l7.85,2.41
			v8.76h-30.4v-8.76l7.35-2.31l22.14-59.59L359.97,223.14z M350.92,240.85l-7.95,23.86h15.5L350.92,240.85z"/>
	</g>
	<text transform="matrix(1 0 0 1 29.647 294.0928)" class="st6 st2 st3 st4">MEDIA</text>
</g>
</svg>
